<svg xmlns="http://www.w3.org/2000/svg" viewBox="0 0 64 64" width="64" height="64">
  <defs>
    <linearGradient id="g" x1="0%" y1="0%" x2="100%" y2="100%">
      <stop offset="0%" style="stop-color:#4af0b0"/>
      <stop offset="100%" style="stop-color:#6c8fff"/>
    </linearGradient>
  </defs>
  <circle cx="32" cy="32" r="32" fill="url(#g)"/>
  <!-- アンテナ -->
  <rect x="30" y="6" width="4" height="8" rx="2" fill="rgba(255,255,255,0.8)"/>
  <circle cx="32" cy="5" r="3" fill="rgba(255,255,255,0.9)"/>
  <!-- 頭部 -->
  <rect x="12" y="18" width="40" height="30" rx="6" fill="rgba(0,0,0,0.35)"/>
  <!-- 目 -->
  <rect x="18" y="26" width="10" height="7" rx="2" fill="rgba(255,255,255,0.15)"/>
  <rect x="36" y="26" width="10" height="7" rx="2" fill="rgba(255,255,255,0.15)"/>
  <circle cx="23" cy="29" r="3" fill="#fff"/>
  <circle cx="41" cy="29" r="3" fill="#fff"/>
  <circle cx="24" cy="28" r="1.2" fill="#1a2a3a"/>
  <circle cx="42" cy="28" r="1.2" fill="#1a2a3a"/>
  <!-- 口 -->
  <rect x="20" y="38" width="24" height="4" rx="2" fill="rgba(255,255,255,0.2)"/>
  <rect x="22" y="39" width="4" height="2" rx="1" fill="rgba(255,255,255,0.7)"/>
  <rect x="28" y="39" width="4" height="2" rx="1" fill="rgba(255,255,255,0.7)"/>
  <rect x="34" y="39" width="4" height="2" rx="1" fill="rgba(255,255,255,0.7)"/>
</svg>
